<?xml version="1.0" encoding="utf-8"?>
<!-- Generator: Adobe Illustrator 15.1.0, SVG Export Plug-In . SVG Version: 6.00 Build 0)  -->
<!DOCTYPE svg PUBLIC "-//W3C//DTD SVG 1.1//EN" "http://www.w3.org/Graphics/SVG/1.1/DTD/svg11.dtd">
<svg version="1.1" id="Layer_1" xmlns="http://www.w3.org/2000/svg" xmlns:xlink="http://www.w3.org/1999/xlink"
	 width="350px" height="350px" viewBox="360 290 350 350"
	 xml:space="preserve">
<g>
	<g>
		
		
		<path fill="#248f24" d="M372.983,430.684c10.952-41.753,34.305-73.63,65.99-95.686c30.668-21.35,79.29-36.385,128.684-25.16
			c42.362,9.627,74.82,32.679,97.337,63.929c22.033,30.574,37.657,73.969,28.047,127.034c-12.652-3.983-6.709-26.561-18.56-31.345
			c-3.077,13.968-6.558,27.535-12.375,38.769c-19.648,0.651-25.266-11.655-25.159-30.108c0.122-20.454,15.169-31.04,10.312-53.206
			c-3.986-18.182-23.931-40.918-37.53-50.73c-22.79-16.44-55.036-26.926-92.803-22.685c-32.401,3.636-60.519,22.42-77.953,44.956
			c-13.916,17.99-24.144,40.925-26.808,67.643C399.449,452.613,385.775,442.089,372.983,430.684z M650.561,473.58
			c8.439,0.996,9.745-15.188,0.824-12.785C647.153,461.933,642.839,472.667,650.561,473.58,
			M372.983,430.684c12.792,11.405,26.467,21.929,39.182,33.41c-1.754,63.104,41.158,103.475,88.264,121.258
			c16.531,6.243,43.442,7.876,62.691,4.95c12.538,11.388,25.987,21.855,38.771,32.997c-65.703,24.714-137.214,4.123-175.703-28.872
			c-19.873-17.035-36.34-38.397-47.02-65.579C368.47,501.619,364.488,464.644,372.983,430.684,
			M601.892,623.299c-12.784-11.142-26.233-21.609-38.771-32.997c56.712-5.154,93.618-30.117,112.187-73.415
			C676.834,577.009,643.834,605.358,601.892,623.299z"/>
		
	</g>
</g>
</svg>
